<svg version="1.2" xmlns="http://www.w3.org/2000/svg" viewBox="0 0 1594 166" width="1594" height="166">
	<title>Giordano-svg</title>
	<style>
		.s0 { fill: #ffffff } 
	</style>
	<g id="g36">
		<path id="path14" fill-rule="evenodd" class="s0" d="m268.7 18.7h27.2v127h-27.2zm187.6 128.7c-46.8 0-77.8-30-77.8-65.4 0-35.5 31.6-65.5 78.3-65.5 47.3 0 78.3 29.5 78.3 65.5-0.5 35.4-30.4 65.4-78.8 65.4zm50.5-64.9c0-23.2-22.6-42-50.5-42-28 0-50.6 18.8-50.6 42 0 23.2 22.6 42 50.6 42 27.9 0 50.5-18.8 50.5-42zm1007.5 64.9c-46.8 0-77.8-30-77.8-65.4 0-35.5 31.6-65.5 78.3-65.5 47.3 0 78.3 29.5 78.3 65.5 0 35.4-29.9 65.4-78.8 65.4zm51.1-64.9c0-23.2-22.6-42-50.6-42-27.9 0-50.5 18.8-50.5 42 0 23.2 22.6 42 50.5 42 28 0 50.6-18.8 50.6-42zm-947.7 63.2v-127h38.6c28.9 0 49 13.7 49 37.1 0 13.6-7.1 24-19.1 30 10.9 8.2 18.5 19.6 26.1 30.5 6 8.2 9.3 12 19.1 23.5l4.9 5.9h-33.2l-19.6-26.1c-17.9-24.6-25.5-26.2-34.2-26.2h-4.9v52.3zm36.4-105.2h-9.2v30.6h9.2c20.1 0 23.9-8.2 23.9-15.8-0.5-8.2-5.4-14.8-23.9-14.8zm216.9 105.2h-57.6v-127h57.6c53.3 0 77.2 33.3 77.2 63.8 0 33.3-29.9 63.2-77.2 63.2zm-3.2-104.1h-27.2v81.8h28.3c42.9 0 52.2-27.8 52.2-40.9 0-21.8-15.8-40.9-53.3-40.9zm204.4-22.9h18.5l65.8 127.6h-28.3l-18.5-35.4h-54.9l-17.4 35.4h-28.3zm25.6 69.8l-16.3-32.2-15.2 32.2zm265.8-69.8v127h-22.3l-88.1-87.2v87.2h-26v-127h20.6l89.2 87.8v-87.8z"/>
	</g>
	<g id="g40">
		<path id="path42" class="s0" d="m169.7 79.8v71.4l-2.1 1.1c-24 9.2-44.1 13.1-69.1 13.1-55.4 0-98.4-33.8-98.4-81.8 0-48 43.5-83.4 99-83.4 21.2 0 36.4 3.2 64.7 13.1l2.7 1v31.1l-5.5-2.7c-20.1-9.8-41.3-14.7-61.9-14.7-37 0-64.7 24-64.7 55 0 31.7 27.2 54.5 67.9 54.5 12.5 0 23.4-2.1 34.8-5.4v-24.5h-34.2v-27.3h66.8"/>
	</g>
</svg>